<svg xmlns="http://www.w3.org/2000/svg" width="18" height="18" viewBox="0 0 48 48">
  <path fill="#FFC107" d="M43.611 20.083H42V20H24v8h11.303C33.27 32.91 29.046 36 24 36c-6.627 0-12-5.373-12-12s5.373-12 12-12c3.059 0 5.842 1.156 7.961 3.039l5.657-5.657C34.869 6.053 29.727 4 24 4 12.955 4 4 12.955 4 24s8.955 20 20 20 20-8.955 20-20c0-1.341-.138-2.651-.389-3.917z"/>
  <path fill="#FF3D00" d="M6.306 14.691l6.571 4.815C14.59 16.337 18.961 12 24 12c3.059 0 5.842 1.156 7.961 3.039l5.657-5.657C34.869 6.053 29.727 4 24 4 15.317 4 7.986 8.94 6.306 14.691z"/>
  <path fill="#4CAF50" d="M24 44c5.886 0 11.241-2.251 15.238-5.911l-6.999-5.916C30.179 33.906 27.243 35 24 35c-5.023 0-9.235-3.071-10.998-7.4l-6.62 5.1C8.025 37.915 15.378 44 24 44z"/>
  <path fill="#1976D2" d="M43.611 20.083H42V20H24v8h11.303c-1.066 3.07-3.404 5.487-6.064 6.172l6.999 5.916C39.33 37.043 44 31.5 44 24c0-1.341-.138-2.651-.389-3.917z"/>
</svg>

