<svg xmlns="http://www.w3.org/2000/svg" width="18" height="18" viewBox="0 0 24 24">
  <path fill="#0A66C2" d="M20.447 20.452H17.21v-5.569c0-1.329-.027-3.039-1.852-3.039-1.853 0-2.136 1.447-2.136 2.944v5.664H9.085V9h3.112v1.561h.044c.434-.822 1.495-1.69 3.074-1.69 3.29 0 3.897 2.166 3.897 4.983v6.598zM5.337 7.433a1.81 1.81 0 1 1 0-3.62 1.81 1.81 0 0 1 0 3.62zM6.97 20.452H3.7V9h3.27v11.452zM22.225 0H1.771C.792 0 0 .774 0 1.729v20.542C0 23.226.792 24 1.771 24h20.451C23.2 24 24 23.226 24 22.271V1.729C24 .774 23.2 0 22.222 0h.003z"/>
</svg>

